<svg width="176" height="46" viewBox="0 0 176 46" fill="none" xmlns="http://www.w3.org/2000/svg">
<path d="M63.5184 25.0955C63.5184 33.9299 56.5846 41.0916 48.0316 41.0916C39.4786 41.0916 32.5449 33.9299 32.5449 25.0955C32.5449 16.2612 39.4786 9.09949 48.0316 9.09949C56.5846 9.09949 63.5184 16.2612 63.5184 25.0955ZM37.1909 25.0955C37.1909 31.2796 42.0445 36.2928 48.0316 36.2928C54.0186 36.2928 58.8726 31.2796 58.8726 25.0955C58.8726 18.9115 54.0186 13.8983 48.0316 13.8983C42.0445 13.8983 37.1909 18.9115 37.1909 25.0955Z" fill="#F18701"/>
<path d="M44.3149 26.6111L47.6001 30.0043L55.262 22.0904L51.9768 18.6971L44.3149 26.6111Z" fill="#F18701"/>
<path d="M51.4386 3.98077H44.3147V7.81983H51.4386V3.98077Z" fill="#F18701"/>
<path d="M39.2836 7.50331L35.4778 10.2558L39.7415 16.5453L43.5473 13.7928L39.2836 7.50331Z" fill="#F18701"/>
<path d="M50.2 3.98077H45.554V13.8983H50.2V3.98077Z" fill="#F18701"/>
<path d="M60.1278 10.2524L56.322 7.49988L52.0583 13.7894L55.8641 16.5419L60.1278 10.2524Z" fill="#F18701"/>
<path d="M96.3504 25.0955C96.3504 33.9299 89.4166 41.0916 80.8637 41.0916C72.3108 41.0916 65.377 33.9299 65.377 25.0955C65.377 16.2612 72.3108 9.09949 80.8637 9.09949C89.4166 9.09949 96.3504 16.2612 96.3504 25.0955ZM70.0228 25.0955C70.0228 31.2796 74.8767 36.2928 80.8637 36.2928C86.8507 36.2928 91.7046 31.2796 91.7046 25.0955C91.7046 18.9115 86.8507 13.8983 80.8637 13.8983C74.8767 13.8983 70.0228 18.9115 70.0228 25.0955Z" fill="#F7B801"/>
<path d="M77.1467 26.6111L80.4319 30.0043L88.0938 22.0904L84.8086 18.6971L77.1467 26.6111Z" fill="#F7B801"/>
<path d="M84.2706 3.98077H77.1467V7.81983H84.2706V3.98077Z" fill="#F7B801"/>
<path d="M72.1156 7.50331L68.3098 10.2558L72.5736 16.5453L76.3794 13.7928L72.1156 7.50331Z" fill="#F7B801"/>
<path d="M83.032 3.98077H78.386V13.8983H83.032V3.98077Z" fill="#F7B801"/>
<path d="M92.9598 10.2524L89.1541 7.49988L84.8903 13.7894L88.6961 16.5419L92.9598 10.2524Z" fill="#F7B801"/>
<path d="M4.54956 40.6923V3.66586H16.0054C18.4903 3.66586 20.6828 3.96781 22.5829 4.57171C24.5197 5.13786 26.0361 6.08144 27.1324 7.40248C28.2652 8.72352 28.8316 10.5163 28.8316 12.7809C28.8316 14.6681 28.3931 16.3477 27.5161 17.8197C26.6756 19.254 25.4515 20.2542 23.8436 20.8203V21.0468C25.963 21.4997 27.6257 22.4244 28.8316 23.8209C30.074 25.1797 30.6952 27.0857 30.6952 29.5391C30.6952 32.0679 30.0923 34.1627 28.8864 35.8234C27.717 37.4841 26.0909 38.7108 24.0081 39.5034C21.9252 40.296 19.5682 40.6923 16.9372 40.6923H4.54956ZM10.9078 18.952H15.4573C17.9421 18.952 19.751 18.4802 20.8837 17.5366C22.0165 16.5931 22.5829 15.3286 22.5829 13.7434C22.5829 11.9317 21.9983 10.6484 20.8289 9.89355C19.6596 9.13867 17.9056 8.76125 15.5669 8.76125H10.9078V18.952ZM10.9078 35.5969H16.2795C18.9105 35.5969 20.9385 35.1063 22.3637 34.1249C23.7888 33.1059 24.5014 31.5584 24.5014 29.4825C24.5014 27.5198 23.8071 26.1044 22.4185 25.2363C21.0299 24.3305 18.9836 23.8776 16.2795 23.8776H10.9078V35.5969ZM102.546 40.6923V0.721863H108.795V25.6326H108.96L118.826 12.8942H125.787L116.633 24.2739L126.719 40.6923H119.867L112.961 28.6332L108.795 33.5588V40.6923H102.546ZM141.465 41.3717C138.943 41.3717 136.66 40.8056 134.613 39.6732C132.603 38.5032 131.014 36.8425 129.844 34.6911C128.675 32.502 128.09 29.8599 128.09 26.7649C128.09 23.7454 128.693 21.16 129.899 19.0086C131.105 16.8195 132.658 15.1399 134.558 13.9699C136.458 12.7998 138.468 12.2148 140.588 12.2148C143.036 12.2148 145.082 12.7809 146.727 13.9132C148.371 15.0456 149.595 16.6119 150.399 18.6123C151.24 20.575 151.66 22.8396 151.66 25.4062C151.66 26.0101 151.623 26.5951 151.55 27.1612C151.514 27.7274 151.441 28.2747 151.331 28.8031H132.804V23.8209H146.069C146.069 21.8205 145.63 20.2542 144.753 19.1219C143.876 17.9518 142.525 17.3668 140.697 17.3668C139.674 17.3668 138.669 17.6499 137.683 18.216C136.732 18.7822 135.929 19.7446 135.271 21.1034C134.65 22.4622 134.339 24.3494 134.339 26.7649C134.339 28.9541 134.704 30.7469 135.435 32.1434C136.166 33.5022 137.135 34.5212 138.34 35.2006C139.546 35.8423 140.843 36.1631 142.232 36.1631C143.402 36.1631 144.498 35.9932 145.521 35.6536C146.581 35.3139 147.567 34.8421 148.481 34.2382L150.673 38.4277C149.431 39.3336 148.006 40.0507 146.398 40.5791C144.827 41.1075 143.182 41.3717 141.465 41.3717ZM157.68 40.6923V12.8942H162.887L163.326 17.8197H163.545C164.495 16.008 165.628 14.6304 166.944 13.6868C168.296 12.7054 169.703 12.2148 171.164 12.2148C171.858 12.2148 172.443 12.2525 172.918 12.328C173.393 12.4035 173.832 12.5545 174.234 12.7809L172.973 18.3292C172.535 18.216 172.132 18.1405 171.767 18.1028C171.402 18.0273 170.927 17.9896 170.342 17.9896C169.282 17.9896 168.168 18.4236 166.998 19.2917C165.829 20.1221 164.824 21.5941 163.984 23.7077V40.6923H157.68Z" fill="#F18701"/>
</svg>
